<svg width="375" height="367" viewBox="0 0 375 367" fill="none" xmlns="http://www.w3.org/2000/svg">
<g clip-path="url(#clip0_2134_5504)">
<path d="M66 125.455C66 106.978 80.9781 92 99.4545 92H170.545V150.545C170.545 169.022 155.567 184 137.091 184H66V125.455Z" fill="#00CA6E"/>
<path d="M72 179.455L147.273 104.182" stroke="#CDF1B7" stroke-width="6.27273" stroke-linecap="round"/>
<path d="M78.2725 125.091L101.272 148.091" stroke="#CDF1B7" stroke-width="6.27273" stroke-linecap="round"/>
<path d="M105.455 100L128.455 123" stroke="#CDF1B7" stroke-width="6.27273" stroke-linecap="round"/>
<path d="M118 137.636L141 160.636" stroke="#CDF1B7" stroke-width="6.27273" stroke-linecap="round"/>
<path d="M158 217.455C158 198.978 172.978 184 191.455 184H262.545V242.545C262.545 261.022 247.567 276 229.091 276H158V217.455Z" fill="#D6EDEB"/>
<path d="M164 271.455L239.273 196.182" stroke="#07402A" stroke-width="6.27273" stroke-linecap="round"/>
<path d="M170.272 217.091L193.272 240.091" stroke="#07402A" stroke-width="6.27273" stroke-linecap="round"/>
<path d="M197.455 192L220.455 215" stroke="#07402A" stroke-width="6.27273" stroke-linecap="round"/>
<path d="M210 229.636L233 252.636" stroke="#07402A" stroke-width="6.27273" stroke-linecap="round"/>
<path d="M272.046 150.545C272.046 167.089 258.635 180.5 242.091 180.5H174.5V125.455C174.5 108.911 187.912 95.5 204.455 95.5H272.046V150.545Z" fill="#CDF1B7" stroke="#FCC034" stroke-width="7"/>
<path d="M220.003 104.616C220.093 103.38 221.907 103.38 221.997 104.616L223.947 131.24C223.999 131.945 224.745 132.375 225.38 132.068L249.413 120.444C250.528 119.905 251.435 121.475 250.41 122.172L228.328 137.173C227.744 137.57 227.744 138.43 228.328 138.827L250.41 153.828C251.435 154.525 250.528 156.095 249.413 155.556L225.38 143.932C224.745 143.625 223.999 144.055 223.947 144.76L221.997 171.384C221.907 172.62 220.093 172.62 220.003 171.384L218.053 144.76C218.001 144.055 217.255 143.625 216.62 143.932L192.587 155.556C191.472 156.095 190.565 154.525 191.59 153.828L213.672 138.827C214.256 138.43 214.256 137.57 213.672 137.173L191.59 122.172C190.565 121.475 191.472 119.905 192.587 120.444L216.62 132.068C217.255 132.375 218.001 131.945 218.053 131.24L220.003 104.616Z" fill="white"/>
<path d="M263 33.4545C263 14.9781 277.978 0 296.455 0H367.545V58.5455C367.545 77.0219 352.567 92 334.091 92H263V33.4545Z" fill="#F88134"/>
<path d="M273.081 2.51572C273.645 0.602279 276.355 0.602281 276.919 2.51572L279.532 11.3919C279.833 12.4149 280.884 13.0216 281.921 12.771L290.915 10.5963C292.853 10.1276 294.209 12.4747 292.833 13.9194L286.453 20.6209C285.718 21.3933 285.718 22.6067 286.453 23.3791L292.833 30.0806C294.209 31.5253 292.853 33.8724 290.915 33.4037L281.921 31.229C280.884 30.9784 279.833 31.5851 279.532 32.6081L276.919 41.4843C276.355 43.3977 273.645 43.3977 273.081 41.4843L270.468 32.6081C270.167 31.5851 269.116 30.9784 268.079 31.229L259.085 33.4037C257.147 33.8724 255.791 31.5253 257.167 30.0806L263.547 23.3791C264.282 22.6067 264.282 21.3933 263.547 20.6209L257.167 13.9194C255.791 12.4747 257.147 10.1276 259.085 10.5963L268.079 12.771C269.116 13.0216 270.167 12.4149 270.468 11.3919L273.081 2.51572Z" fill="#00CA6E"/>
<path d="M79.5 309.455C79.5 290.978 94.4781 276 112.955 276H184.045V334.545C184.045 353.022 169.067 368 150.591 368H79.5V309.455Z" fill="#FCC034"/>
<path d="M89.5814 278.516C90.1449 276.602 92.8551 276.602 93.4186 278.516L96.0322 287.392C96.3334 288.415 97.3842 289.022 98.4208 288.771L107.415 286.596C109.353 286.128 110.709 288.475 109.333 289.919L102.953 296.621C102.218 297.393 102.218 298.607 102.953 299.379L109.333 306.081C110.709 307.525 109.353 309.872 107.415 309.404L98.4208 307.229C97.3842 306.978 96.3334 307.585 96.0322 308.608L93.4186 317.484C92.8551 319.398 90.1449 319.398 89.5814 317.484L86.9678 308.608C86.6666 307.585 85.6158 306.978 84.5792 307.229L75.5854 309.404C73.6466 309.872 72.2915 307.525 73.6668 306.081L80.0471 299.379C80.7824 298.607 80.7824 297.393 80.0471 296.621L73.6668 289.919C72.2915 288.475 73.6466 286.128 75.5854 286.596L84.5792 288.771C85.6158 289.022 86.6666 288.415 86.9678 287.392L89.5814 278.516Z" fill="#00CA6E"/>
<path d="M288.546 334.545C288.546 353.022 273.568 368 255.091 368L184 368L184 309.455C184 290.978 198.979 276 217.455 276L288.546 276L288.546 334.545Z" fill="#F03F45"/>
<path d="M278.464 365.484C277.901 367.398 275.191 367.398 274.627 365.484L272.014 356.608C271.713 355.585 270.662 354.978 269.625 355.229L260.631 357.404C258.692 357.872 257.337 355.525 258.713 354.081L265.093 347.379C265.828 346.607 265.828 345.393 265.093 344.621L258.713 337.919C257.337 336.475 258.692 334.128 260.631 334.596L269.625 336.771C270.662 337.022 271.713 336.415 272.014 335.392L274.627 326.516C275.191 324.602 277.901 324.602 278.464 326.516L281.078 335.392C281.379 336.415 282.43 337.022 283.467 336.771L292.46 334.596C294.399 334.128 295.754 336.475 294.379 337.919L287.999 344.621C287.264 345.393 287.264 346.607 287.999 347.379L294.379 354.081C295.754 355.525 294.399 357.872 292.461 357.404L283.467 355.229C282.43 354.978 281.379 355.585 281.078 356.608L278.464 365.484Z" fill="#00CA6E"/>
<mask id="path-19-inside-1_2134_5504" fill="white">
<path d="M104.546 217.455C104.546 198.978 89.5678 184 71.0914 184H0.000442505V242.545C0.000442505 261.022 14.9786 276 33.455 276H104.546V217.455Z"/>
</mask>
<path d="M104.546 217.455C104.546 198.978 89.5678 184 71.0914 184H0.000442505V242.545C0.000442505 261.022 14.9786 276 33.455 276H104.546V217.455Z" fill="#F03F45"/>
<path d="M104.546 184H0.000442505H104.546ZM-6.99956 242.545C-6.99956 264.888 11.1126 283 33.455 283H104.546V269H33.455C18.8445 269 7.00044 257.156 7.00044 242.545H-6.99956ZM104.546 276V184V276ZM-6.99956 184V242.545C-6.99956 264.888 11.1126 283 33.455 283V269C18.8445 269 7.00044 257.156 7.00044 242.545V184H-6.99956Z" fill="#00CA6E" mask="url(#path-19-inside-1_2134_5504)"/>
<ellipse cx="67.3065" cy="214.731" rx="11" ry="5" transform="rotate(-44.1026 67.3065 214.731)" fill="#010C44"/>
<ellipse cx="58.0791" cy="195" rx="11" ry="5" fill="#010C44"/>
<ellipse cx="90" cy="221" rx="11" ry="5" transform="rotate(-90 90 221)" fill="#010C44"/>
<path d="M367.546 217.455C367.546 198.978 352.568 184 334.091 184H263V242.545C263 261.022 277.979 276 296.455 276H367.546V217.455Z" fill="#CDF1B7"/>
<path d="M308.769 194.198C311.954 189.646 318.695 189.646 321.879 194.198L323.246 196.152C325.175 198.909 328.624 200.165 331.875 199.292L334.177 198.674C339.543 197.234 344.706 201.567 344.22 207.101L344.011 209.476C343.716 212.829 345.552 216.007 348.602 217.428L350.763 218.435C355.799 220.781 356.97 227.419 353.04 231.346L351.354 233.031C348.973 235.41 348.335 239.024 349.759 242.074L350.767 244.234C353.117 249.268 349.747 255.106 344.212 255.588L341.837 255.794C338.485 256.086 335.673 258.446 334.803 261.697L334.187 264C332.752 269.366 326.417 271.672 321.868 268.484L319.916 267.115C317.159 265.184 313.489 265.184 310.733 267.115L308.781 268.484C304.231 271.672 297.897 269.366 296.461 264L295.845 261.697C294.976 258.446 292.164 256.086 288.811 255.794L286.436 255.588C280.902 255.106 277.531 249.268 279.881 244.234L280.89 242.074C282.313 239.024 281.676 235.41 279.295 233.031L277.609 231.346C273.679 227.419 274.849 220.781 279.885 218.435L282.046 217.428C285.097 216.007 286.932 212.829 286.637 209.476L286.429 207.101C285.942 201.567 291.106 197.234 296.472 198.674L298.774 199.292C302.025 200.165 305.473 198.909 307.403 196.152L308.769 194.198Z" fill="#F03F45"/>
<rect x="305" y="223" width="20" height="17" rx="8.5" fill="#FCC034"/>
<path d="M92 33.4545C92 14.9781 106.978 0 125.455 0H196.545V58.5455C196.545 77.0219 181.567 92 163.091 92H92V33.4545Z" fill="#07402A"/>
<path d="M150.777 10.1985C147.592 5.6464 140.851 5.64641 137.666 10.1985L136.3 12.1517C134.371 14.9094 130.922 16.1647 127.671 15.2923L125.369 14.6744C120.003 13.2344 114.84 17.5673 115.326 23.1015L115.535 25.4761C115.829 28.8287 113.994 32.0073 110.943 33.4284L108.783 34.4349C103.747 36.7807 102.576 43.4192 106.506 47.3459L108.192 49.0308C110.573 51.4097 111.21 55.0242 109.787 58.0739L108.779 60.2339C106.429 65.2679 109.799 71.1057 115.334 71.5876L117.708 71.7944C121.061 72.0864 123.873 74.4456 124.743 77.6968L125.359 79.9996C126.794 85.3664 133.129 87.6719 137.678 84.4836L139.63 83.1155C142.386 81.184 146.057 81.184 148.813 83.1155L150.765 84.4836C155.314 87.6719 161.649 85.3664 163.084 79.9996L163.701 77.6968C164.57 74.4456 167.382 72.0864 170.735 71.7944L173.11 71.5876C178.644 71.1057 182.015 65.2679 179.665 60.2339L178.656 58.0739C177.233 55.0242 177.87 51.4097 180.251 49.0308L181.937 47.3459C185.867 43.4192 184.696 36.7807 179.661 34.4349L177.5 33.4284C174.449 32.0073 172.614 28.8287 172.908 25.4761L173.117 23.1015C173.604 17.5673 168.44 13.2344 163.074 14.6744L160.772 15.2923C157.521 16.1647 154.072 14.9094 152.143 12.1517L150.777 10.1985Z" fill="#D6EDEB"/>
<rect width="20" height="17" rx="8.5" transform="matrix(-1 0 0 1 154.546 39)" fill="#FCC034"/>
</g>
<defs>
<clipPath id="clip0_2134_5504">
<rect width="375" height="548" fill="white"/>
</clipPath>
</defs>
</svg>
