<svg width="141" height="90" viewBox="0 0 141 90" fill="none" xmlns="http://www.w3.org/2000/svg">
<g clip-path="url(#clip0_2140_1584)">
<path d="M21.0992 45.2017C21.0992 45.9947 20.8279 46.6625 20.2853 47.2051C19.7427 47.7477 19.0748 48.0191 18.2818 48.0191H10.8313C10.2887 48.0191 10.0174 48.3112 10.0174 48.8956V70.12C10.0174 70.913 9.72525 71.6017 9.1409 72.1861C8.59829 72.7287 7.93046 73 7.13741 73H5.38436C4.59132 73 3.92349 72.7287 3.38088 72.1861C2.83827 71.6017 2.56696 70.913 2.56696 70.12V47.5808C2.56696 46.2869 2.88001 45.1182 3.5061 44.0747C4.13219 42.9895 4.96697 42.1338 6.01045 41.5077C7.05393 40.8816 8.22263 40.5686 9.51655 40.5686H18.2818C19.0748 40.5686 19.7427 40.8608 20.2853 41.4451C20.8279 41.9877 21.0992 42.6764 21.0992 43.5112V45.2017ZM45.7123 65.9878C45.7123 67.9495 45.0236 69.6191 43.6462 70.9965C42.3106 72.3322 40.6827 73 38.7627 73H30.0601C28.1401 73 26.4914 72.3322 25.114 70.9965C23.7366 69.6191 23.0479 67.9495 23.0479 65.9878V59.1634C23.0479 57.8695 23.3609 56.7217 23.987 55.7199C24.6549 54.6765 25.5105 53.8417 26.554 53.2156C27.5975 52.5895 28.7662 52.2765 30.0601 52.2765H37.4479C37.6566 52.2765 37.8445 52.193 38.0114 52.026C38.2201 51.8591 38.3245 51.6504 38.3245 51.3999V48.8956C38.3245 48.6451 38.2201 48.4364 38.0114 48.2695C37.8445 48.1025 37.6566 48.0191 37.4479 48.0191H30.0601C29.267 48.0191 28.5783 47.7477 27.994 47.2051C27.4514 46.6625 27.1801 45.9947 27.1801 45.2017V43.5112C27.1801 42.6764 27.4514 41.9877 27.994 41.4451C28.5783 40.8608 29.267 40.5686 30.0601 40.5686H38.7627C40.0566 40.5686 41.2253 40.8816 42.2688 41.5077C43.3123 42.1338 44.1471 42.9895 44.7732 44.0747C45.3993 45.1182 45.7123 46.2869 45.7123 47.5808V65.9878ZM38.3245 64.7982V60.4782C38.3245 60.2695 38.2201 60.0817 38.0114 59.9147C37.8445 59.7478 37.6566 59.6643 37.4479 59.6643H31.3749C31.1662 59.6643 30.9575 59.7478 30.7488 59.9147C30.5818 60.0817 30.4984 60.2695 30.4984 60.4782V64.7982C30.4984 65.0069 30.5818 65.1948 30.7488 65.3617C30.9575 65.5287 31.1662 65.6122 31.3749 65.6122H37.4479C37.6566 65.6122 37.8445 65.5287 38.0114 65.3617C38.2201 65.1948 38.3245 65.0069 38.3245 64.7982Z" fill="#07402A"/>
<g clip-path="url(#clip1_2140_1584)">
<path d="M73.124 29.16C73.124 24.2391 77.1132 20.25 82.034 20.25H93.374V29.16C93.374 34.0809 89.3849 38.07 84.464 38.07H73.124V29.16Z" fill="#07402A"/>
<path d="M74.249 47.16C74.249 42.2391 70.2599 38.25 65.339 38.25H53.999V47.16C53.999 52.0809 57.9882 56.07 62.909 56.07H74.249V47.16Z" fill="#07402A"/>
<path d="M76.499 31.5L76.499 69.75" stroke="#07402A" stroke-width="6.75"/>
</g>
<path d="M109.784 34.6834C109.784 35.9773 109.304 37.1042 108.344 38.0642C107.426 38.9825 106.341 39.4416 105.089 39.4416C103.795 39.4416 102.668 38.9825 101.708 38.0642C100.79 37.1042 100.331 35.9773 100.331 34.6834C100.331 33.4312 100.79 32.346 101.708 31.4277C102.668 30.4677 103.795 29.9877 105.089 29.9877C106.341 29.9877 107.426 30.4677 108.344 31.4277C109.304 32.346 109.784 33.4312 109.784 34.6834ZM108.783 70.12C108.783 70.913 108.491 71.6017 107.906 72.1861C107.364 72.7287 106.696 73 105.903 73H104.212C103.419 73 102.731 72.7287 102.146 72.1861C101.604 71.6017 101.332 70.913 101.332 70.12V44.1373C101.332 43.3443 101.604 42.6764 102.146 42.1338C102.731 41.5495 103.419 41.2573 104.212 41.2573H105.903C106.696 41.2573 107.364 41.5495 107.906 42.1338C108.491 42.6764 108.783 43.3443 108.783 44.1373V70.12ZM135.545 44.7634L125.59 64.8608C125.465 65.0278 125.444 65.1948 125.527 65.3617C125.652 65.5287 125.798 65.6122 125.965 65.6122H132.602C133.353 65.6122 134 65.8835 134.543 66.4261C135.127 66.9687 135.419 67.6574 135.419 68.4922V70.12C135.419 70.913 135.127 71.6017 134.543 72.1861C134 72.7287 133.353 73 132.602 73H117.764C116.678 73 115.865 72.5409 115.322 71.6226C114.779 70.7043 114.738 69.7861 115.197 68.8678L125.214 48.7078C125.298 48.5825 125.298 48.4364 125.214 48.2695C125.131 48.1025 124.985 48.0191 124.776 48.0191H118.39C117.597 48.0191 116.908 47.7477 116.324 47.2051C115.781 46.6625 115.51 45.9947 115.51 45.2017V43.5112C115.51 42.6764 115.781 41.9877 116.324 41.4451C116.908 40.8608 117.597 40.5686 118.39 40.5686H132.978C134.021 40.5686 134.835 41.0277 135.419 41.946C135.962 42.8643 136.004 43.8034 135.545 44.7634Z" fill="#07402A"/>
</g>
<defs>
<clipPath id="clip0_2140_1584">
<rect width="140.577" height="90" fill="white"/>
</clipPath>
<clipPath id="clip1_2140_1584">
<rect width="39.375" height="49.5" fill="white" transform="translate(53.999 20.25)"/>
</clipPath>
</defs>
</svg>
