<svg width="142" height="90" viewBox="0 0 142 90" fill="none" xmlns="http://www.w3.org/2000/svg">
<g clip-path="url(#clip0_2140_1575)">
<path d="M22.0504 45.2017C22.0504 45.9947 21.7791 46.6625 21.2365 47.2051C20.6938 47.7477 20.026 48.0191 19.233 48.0191H11.7825C11.2399 48.0191 10.9686 48.3112 10.9686 48.8956V70.12C10.9686 70.913 10.6764 71.6017 10.0921 72.1861C9.54946 72.7287 8.88163 73 8.08859 73H6.33554C5.54249 73 4.87466 72.7287 4.33205 72.1861C3.78944 71.6017 3.51814 70.913 3.51814 70.12V47.5808C3.51814 46.2869 3.83118 45.1182 4.45727 44.0747C5.08336 42.9895 5.91814 42.1338 6.96163 41.5077C8.00511 40.8816 9.17381 40.5686 10.4677 40.5686H19.233C20.026 40.5686 20.6938 40.8608 21.2365 41.4451C21.7791 41.9877 22.0504 42.6764 22.0504 43.5112V45.2017ZM46.6635 65.9878C46.6635 67.9495 45.9748 69.6191 44.5974 70.9965C43.2617 72.3322 41.6339 73 39.7139 73H31.0113C29.0913 73 27.4426 72.3322 26.0652 70.9965C24.6878 69.6191 23.9991 67.9495 23.9991 65.9878V59.1634C23.9991 57.8695 24.3121 56.7217 24.9382 55.7199C25.606 54.6765 26.4617 53.8417 27.5052 53.2156C28.5486 52.5895 29.7173 52.2765 31.0113 52.2765H38.3991C38.6078 52.2765 38.7956 52.193 38.9626 52.026C39.1713 51.8591 39.2756 51.6504 39.2756 51.3999V48.8956C39.2756 48.6451 39.1713 48.4364 38.9626 48.2695C38.7956 48.1025 38.6078 48.0191 38.3991 48.0191H31.0113C30.2182 48.0191 29.5295 47.7477 28.9452 47.2051C28.4026 46.6625 28.1313 45.9947 28.1313 45.2017V43.5112C28.1313 42.6764 28.4026 41.9877 28.9452 41.4451C29.5295 40.8608 30.2182 40.5686 31.0113 40.5686H39.7139C41.0078 40.5686 42.1765 40.8816 43.22 41.5077C44.2635 42.1338 45.0983 42.9895 45.7244 44.0747C46.3504 45.1182 46.6635 46.2869 46.6635 47.5808V65.9878ZM39.2756 64.7982V60.4782C39.2756 60.2695 39.1713 60.0817 38.9626 59.9147C38.7956 59.7478 38.6078 59.6643 38.3991 59.6643H32.3261C32.1174 59.6643 31.9087 59.7478 31.7 59.9147C31.533 60.0817 31.4495 60.2695 31.4495 60.4782V64.7982C31.4495 65.0069 31.533 65.1948 31.7 65.3617C31.9087 65.5287 32.1174 65.6122 32.3261 65.6122H38.3991C38.6078 65.6122 38.7956 65.5287 38.9626 65.3617C39.1713 65.1948 39.2756 65.0069 39.2756 64.7982Z" fill="white"/>
<g clip-path="url(#clip1_2140_1575)">
<path d="M74.0752 29.16C74.0752 24.2391 78.0643 20.25 82.9852 20.25H94.3252V29.16C94.3252 34.0809 90.3361 38.07 85.4152 38.07H74.0752V29.16Z" fill="white"/>
<path d="M75.2002 47.16C75.2002 42.2391 71.2111 38.25 66.2902 38.25H54.9502V47.16C54.9502 52.0809 58.9393 56.07 63.8602 56.07H75.2002V47.16Z" fill="white"/>
<path d="M77.4502 31.5L77.4502 69.75" stroke="white" stroke-width="6.75"/>
</g>
<path d="M110.736 34.6834C110.736 35.9773 110.256 37.1042 109.296 38.0642C108.377 38.9825 107.292 39.4416 106.04 39.4416C104.746 39.4416 103.619 38.9825 102.659 38.0642C101.741 37.1042 101.282 35.9773 101.282 34.6834C101.282 33.4312 101.741 32.346 102.659 31.4277C103.619 30.4677 104.746 29.9877 106.04 29.9877C107.292 29.9877 108.377 30.4677 109.296 31.4277C110.256 32.346 110.736 33.4312 110.736 34.6834ZM109.734 70.12C109.734 70.913 109.442 71.6017 108.857 72.1861C108.315 72.7287 107.647 73 106.854 73H105.163C104.37 73 103.682 72.7287 103.097 72.1861C102.555 71.6017 102.283 70.913 102.283 70.12V44.1373C102.283 43.3443 102.555 42.6764 103.097 42.1338C103.682 41.5495 104.37 41.2573 105.163 41.2573H106.854C107.647 41.2573 108.315 41.5495 108.857 42.1338C109.442 42.6764 109.734 43.3443 109.734 44.1373V70.12ZM136.496 44.7634L126.541 64.8608C126.416 65.0278 126.395 65.1948 126.478 65.3617C126.604 65.5287 126.75 65.6122 126.917 65.6122H133.553C134.304 65.6122 134.951 65.8835 135.494 66.4261C136.078 66.9687 136.371 67.6574 136.371 68.4922V70.12C136.371 70.913 136.078 71.6017 135.494 72.1861C134.951 72.7287 134.304 73 133.553 73H118.715C117.63 73 116.816 72.5409 116.273 71.6226C115.73 70.7043 115.689 69.7861 116.148 68.8678L126.165 48.7078C126.249 48.5825 126.249 48.4364 126.165 48.2695C126.082 48.1025 125.936 48.0191 125.727 48.0191H119.341C118.548 48.0191 117.859 47.7477 117.275 47.2051C116.732 46.6625 116.461 45.9947 116.461 45.2017V43.5112C116.461 42.6764 116.732 41.9877 117.275 41.4451C117.859 40.8608 118.548 40.5686 119.341 40.5686H133.929C134.972 40.5686 135.786 41.0277 136.371 41.946C136.913 42.8643 136.955 43.8034 136.496 44.7634Z" fill="white"/>
</g>
<defs>
<clipPath id="clip0_2140_1575">
<rect width="140.577" height="90" fill="white" transform="translate(0.951172)"/>
</clipPath>
<clipPath id="clip1_2140_1575">
<rect width="39.375" height="49.5" fill="white" transform="translate(54.9502 20.25)"/>
</clipPath>
</defs>
</svg>
